<svg width="174" height="48" viewBox="0 0 174 48" fill="none" xmlns="http://www.w3.org/2000/svg">
<rect x="0.898804" y="1.12303" width="41.7385" height="41.5766" rx="5" fill="#005339"/>
<g filter="url(#filter0_d_2151_70)">
<path d="M5.30383 30.4639V11.3609H7.42566C6.93813 14.4843 8.8476 14.0581 9.86327 13.4545L27.2174 4.70088V16.3287C27.2174 19.7887 12.9858 27.0732 5.30383 30.4639Z" fill="#B7F173"/>
<path d="M37.866 13.2016V32.3046H35.7441C36.2317 29.1812 34.3222 29.6075 33.3065 30.211L15.9524 38.9647V27.3369C15.9524 22.4987 30.184 16.5924 37.866 13.2016Z" fill="#B7F173"/>
</g>
<path d="M74.9311 38.3381H54.6901V33.7361L68.1451 16.9661H55.0801V12.4421H74.9311V16.6931L61.3981 33.7361H74.9311V38.3381ZM80.264 26.8721H88.103C88.025 24.0251 86.153 22.6601 84.164 22.6601C82.136 22.6601 80.459 24.2201 80.264 26.8721ZM93.329 30.0701H80.108C80.264 32.9561 81.902 34.8281 84.398 34.8281C86.036 34.8281 87.479 34.0091 87.83 32.6831H93.056C91.886 36.6221 88.727 38.8451 84.632 38.8451C78.236 38.8451 75.038 35.3351 75.038 28.3931C75.038 22.4651 78.431 18.6431 84.32 18.6431C90.209 18.6431 93.329 22.4651 93.329 30.0701ZM112.475 38.3381H107.366V26.7161C107.366 23.7521 106.508 22.9331 104.09 22.9331C101.438 22.9331 100.151 24.4151 100.151 27.3401V38.3381H95.0813V19.1501H99.9173V21.9581C101.087 19.8131 103.037 18.6431 106.118 18.6431C109.784 18.6431 112.475 20.8661 112.475 25.0391V38.3381ZM123.744 34.5161C126.708 34.5161 128.112 32.5271 128.112 28.5881C128.112 25.1561 126.318 22.7771 123.783 22.7771C121.365 22.7771 119.493 25.0391 119.493 28.2761C119.493 32.4491 120.936 34.5161 123.744 34.5161ZM119.688 47.4251H114.696V19.1501H119.571L119.61 21.4901C120.819 19.5401 122.613 18.6431 124.953 18.6431C129.789 18.6431 133.26 22.4651 133.26 28.9391C133.26 34.7501 130.335 38.8451 125.382 38.8451C123.003 38.8451 121.131 37.8701 119.688 35.8421V47.4251ZM146.732 31.0451L146.771 28.9391C146.264 29.4461 145.367 29.7191 143.495 30.0701C140.609 30.6161 139.673 31.4351 139.673 33.0731C139.673 34.5161 140.531 35.2181 142.13 35.2181C144.743 35.2181 146.693 33.3071 146.732 31.0451ZM151.841 38.3381H147.122C146.966 37.8701 146.849 37.2071 146.81 36.6221C145.601 37.9481 143.573 38.8451 140.999 38.8451C136.631 38.8451 134.603 36.7001 134.603 33.5801C134.603 28.0421 138.308 27.4181 143.417 26.7161C145.952 26.3651 146.654 25.8581 146.654 24.5321C146.654 23.2841 145.406 22.5431 143.417 22.5431C141.116 22.5431 140.18 23.6741 139.946 25.3901H135.227C135.305 21.4121 137.489 18.6431 143.651 18.6431C149.735 18.6431 151.841 21.3731 151.841 26.2091V38.3381ZM166.283 38.9231V35.8031C165.581 37.5191 163.475 38.5331 161.096 38.5331C157.079 38.5331 154.076 35.8031 154.076 31.5911V19.1501H159.146V30.8501C159.146 33.2291 160.238 34.4381 162.383 34.4381C164.684 34.4381 166.283 32.9171 166.283 30.8501V19.1501H171.353V38.8451C171.353 44.2661 167.453 47.4251 162.539 47.4251C156.923 47.4251 154.076 44.3441 154.076 39.3911H158.795C158.795 41.6531 160.121 43.0571 162.773 43.0571C164.606 43.0571 166.283 41.4581 166.283 38.9231Z" fill="white"/>
<defs>
<filter id="filter0_d_2151_70" x="3.30383" y="2.70088" width="38.5621" height="40.2638" filterUnits="userSpaceOnUse" color-interpolation-filters="sRGB">
<feFlood flood-opacity="0" result="BackgroundImageFix"/>
<feColorMatrix in="SourceAlpha" type="matrix" values="0 0 0 0 0 0 0 0 0 0 0 0 0 0 0 0 0 0 127 0" result="hardAlpha"/>
<feOffset dx="1" dy="1"/>
<feGaussianBlur stdDeviation="1.5"/>
<feComposite in2="hardAlpha" operator="out"/>
<feColorMatrix type="matrix" values="0 0 0 0 0 0 0 0 0 0 0 0 0 0 0 0 0 0 0.25 0"/>
<feBlend mode="normal" in2="BackgroundImageFix" result="effect1_dropShadow_2151_70"/>
<feBlend mode="normal" in="SourceGraphic" in2="effect1_dropShadow_2151_70" result="shape"/>
</filter>
</defs>
</svg>
